<?xml version="1.0" encoding="UTF-8" standalone="no"?>
<!-- Created with Inkscape (http://www.inkscape.org/) -->

<svg
   width="104.69498mm"
   height="84.29657mm"
   viewBox="0 0 395.69759 318.60121"
   version="1.1"
   id="svg1"
   xml:space="preserve"
   xmlns="http://www.w3.org/2000/svg"
   xmlns:svg="http://www.w3.org/2000/svg"><defs
     id="defs1" /><g
     id="layer1"
     transform="translate(-1.5574118,-224.7476)"><path
       style="fill:#00ccff;stroke-width:0.26953"
       d="m 207.36646,360.38146 c 0.87372,-0.93333 1.79361,-1.91836 2.0442,-2.18896 0.25057,-0.27062 1.09276,-1.15412 1.87153,-1.96338 l 1.4159,-1.47136 1.02343,0.76152 c 1.22228,0.9095 1.21059,0.89879 1.76948,1.61725 l 0.44193,0.56809 -0.53724,0.69404 c -0.76407,0.98711 -10.76284,4.90287 -8.02923,1.9828 z m 0.39656,-15.71249 c 0.0339,-0.70942 0.3808,-1.62935 0.90833,-2.40856 0.74339,-1.09782 1.04916,-1.51274 1.71274,-2.32438 0.33075,-0.40454 0.72682,-0.88895 0.8801,-1.07647 0.15325,-0.18744 0.47237,-0.58142 0.70906,-0.8754 0.23667,-0.29394 0.69867,-0.86314 1.02665,-1.26486 0.328,-0.40174 0.78964,-0.97086 1.02592,-1.26476 0.23627,-0.29389 0.78784,-0.97266 1.22571,-1.50838 0.43787,-0.53573 0.90033,-1.105 1.02774,-1.26506 0.1274,-0.16007 0.5914,-0.72962 1.03116,-1.26559 0.43979,-0.53602 1.00873,-1.23664 1.26437,-1.55692 0.25562,-0.32029 0.71774,-0.88947 1.02689,-1.26489 0.30917,-0.37544 0.73722,-0.90323 0.95122,-1.17292 0.214,-0.26965 0.53695,-0.66421 0.71768,-0.87678 0.18068,-0.21261 0.89143,-1.08611 1.57933,-1.94121 0.68793,-0.8551 1.43558,-1.77478 1.6614,-2.04373 0.22583,-0.26895 0.97509,-1.1889 1.66503,-2.04432 0.68992,-0.85542 1.38538,-1.70742 1.54545,-1.8933 0.16013,-0.18589 0.48146,-0.5802 0.71419,-0.87624 0.23273,-0.296 0.53414,-0.67126 0.66975,-0.83388 0.39383,-0.47227 2.26271,-2.76438 2.6509,-3.25133 0.19484,-0.24448 0.62206,-0.77304 0.94925,-1.17461 0.32719,-0.40161 0.78859,-0.97071 1.0253,-1.26465 0.50474,-0.62685 1.35066,-1.65937 1.8033,-2.20107 0.17558,-0.21026 0.4773,-0.58356 0.67042,-0.82974 0.19311,-0.24619 0.6854,-0.85491 1.094,-1.35266 0.4086,-0.49778 0.91664,-1.12697 1.12896,-1.39818 0.21234,-0.27122 0.65505,-0.82174 0.98374,-1.22333 0.32874,-0.40159 0.79147,-0.97075 1.02831,-1.26472 0.23686,-0.29401 0.80793,-0.99497 1.26905,-1.55768 0.46113,-0.5627 0.93612,-1.14728 1.05554,-1.29903 0.11948,-0.15173 0.59691,-0.74249 1.06114,-1.31272 0.46422,-0.57022 1.03765,-1.27731 1.27424,-1.57128 0.23662,-0.29394 0.68236,-0.84149 0.99057,-1.21674 0.30822,-0.37531 0.73784,-0.90121 0.95473,-1.16873 0.21693,-0.26753 0.70809,-0.86045 1.09151,-1.31761 0.38343,-0.45715 0.76779,-0.91871 0.85413,-1.02563 0.0863,-0.10698 0.48722,-0.59017 0.89079,-1.07381 0.74492,-0.89277 1.33355,-1.61101 1.90897,-2.32937 0.31801,-0.397 1.30075,-1.59826 1.76081,-2.15231 0.13378,-0.1611 0.61231,-0.75201 1.06346,-1.3131 0.45115,-0.56112 1.2142,-1.5023 1.69571,-2.09154 0.91183,-1.11589 1.47193,-1.80791 2.12143,-2.62093 0.21103,-0.26415 0.51052,-0.63021 0.66549,-0.81334 0.27988,-0.33077 1.3402,-1.64289 1.62672,-2.01302 0.0823,-0.10626 0.40199,-0.5003 0.71044,-0.87561 0.30847,-0.37529 0.59567,-0.72601 0.63824,-0.7794 0.0426,-0.0534 0.48454,-0.60034 0.98213,-1.21546 0.4976,-0.6151 1.25779,-1.55583 1.68931,-2.09052 0.4315,-0.53467 1.16309,-1.43275 1.62575,-1.9957 0.46266,-0.56296 1.03524,-1.26414 1.27235,-1.5582 0.74232,-0.92053 2.377,-2.8567 2.90965,-3.44627 0.68356,-0.75666 0.9182,-0.93077 1.21898,-0.90468 0.36254,0.0315 1.53813,0.93759 2.94377,2.2691 0.6858,0.64957 1.85124,1.74354 2.58993,2.431 0.73867,0.68746 1.83639,1.71373 2.43937,2.28063 1.06886,1.00488 1.61371,1.51448 4.28165,4.00457 0.71168,0.66422 1.56302,1.46037 1.89185,1.76919 0.32883,0.30876 1.00141,0.94037 1.49467,1.40356 0.49322,0.46317 1.09824,1.02962 1.34449,1.25878 0.24623,0.22918 0.58219,0.54288 0.74656,0.69713 1.00519,0.94309 2.50011,2.34293 2.72428,2.551 0.14469,0.1343 0.46445,0.43075 0.71049,0.65869 0.24605,0.22793 0.76214,0.71514 1.14697,1.08268 0.38481,0.36752 0.92261,0.87113 1.19514,1.11909 0.27252,0.24801 0.88824,0.82057 1.36825,1.27238 0.48001,0.45181 1.62721,1.52608 2.54929,2.38724 2.06441,1.928 2.03293,1.89385 2.01611,2.18937 -0.0211,0.37404 -0.73295,1.21266 -2.49127,2.9357 -0.24122,0.23636 -0.63759,0.62603 -0.88083,0.86588 -0.47331,0.46673 -3.4267,3.23927 -7.51121,7.05126 -2.32202,2.16712 -4.77324,4.46187 -7.44756,6.97214 -0.58626,0.55032 -2.12487,1.99263 -3.41905,3.20508 -1.29419,1.2125 -2.79964,2.62401 -3.34544,3.13671 -0.5458,0.51268 -1.04202,0.97852 -1.10272,1.0352 -0.0607,0.0566 -0.50729,0.47586 -0.99244,0.93159 -1.75217,1.64577 -7.34676,6.88497 -9.89086,9.2625 -0.99118,0.92629 -2.29813,2.15148 -2.90433,2.72262 -1.319,1.2427 -3.9115,3.66935 -6.87622,6.43632 -1.19368,1.11405 -3.17965,2.97064 -4.41328,4.1257 -2.81383,2.6347 -6.51675,6.09391 -9.71009,9.07104 -4.59846,4.28701 -6.69828,6.27974 -8.61409,8.17485 -3.04806,3.01496 -3.68797,3.47705 -5.13798,3.71009 -1.20405,0.19351 -1.85083,-0.0312 -3.00345,-1.04384 -1.2388,-1.08822 -1.79953,-1.58961 -2.80245,-2.50576 -0.57269,-0.5231 -1.28573,-1.16939 -1.58453,-1.43618 -0.29881,-0.26677 -0.90152,-0.81883 -1.33934,-1.22679 -0.43784,-0.40796 -1.42146,-1.31648 -2.1858,-2.01895 -0.76438,-0.70245 -1.5696,-1.44847 -1.78937,-1.65781 -0.21973,-0.20939 -0.60064,-0.56195 -0.84636,-0.7835 -0.24575,-0.22158 -0.51458,-0.47298 -0.59744,-0.55868 -0.083,-0.0858 -0.41965,-0.4084 -0.74848,-0.71711 -0.74076,-0.69546 -0.76776,-0.722 -2.03662,-2.00176 -0.78056,-0.78729 -1.09927,-1.17198 -1.28901,-1.55605 -0.29851,-0.60423 -0.51641,-1.5101 -0.49003,-2.04416 z m 64.75635,-83.6772 c 0.0864,-0.68423 0.27711,-1.57886 0.60642,-2.84718 0.17669,-0.67984 0.51001,-1.97713 0.74075,-2.88292 l 0.41958,-1.64679 0.49591,-0.13272 c 0.2729,-0.0722 0.62337,-0.16891 0.77906,-0.21353 0.28253,-0.081 0.28603,-0.0785 1.78004,1.33672 0.82335,0.77979 1.87693,1.76835 2.34132,2.19678 0.46436,0.42846 1.2694,1.17324 1.78889,1.6551 0.51951,0.48188 1.2154,1.12384 1.54649,1.42661 0.33102,0.30273 0.82639,0.76186 1.10081,1.02022 0.27439,0.25837 0.71996,0.67795 0.99012,0.93238 1.39482,1.31382 2.44387,2.29867 4.25195,3.99176 0.4521,0.42337 1.02366,0.95967 1.27015,1.19186 0.24651,0.23218 0.91874,0.86051 1.49391,1.39627 0.57512,0.53576 1.24733,1.16367 1.49372,1.39536 0.7934,0.74594 1.61702,1.51731 2.78827,2.6114 0.62967,0.58818 1.36893,1.28455 1.64286,1.54749 0.27391,0.26294 0.54267,0.51391 0.59725,0.55771 0.0546,0.0438 0.41418,0.38088 0.79909,0.74905 0.3849,0.36815 1.05778,0.9975 1.49531,1.39849 0.4375,0.40103 1.17379,1.08711 1.63617,1.52467 0.46238,0.43756 1.31247,1.23007 1.88912,1.76121 0.57662,0.5311 1.2954,1.19954 1.5973,1.48548 0.65636,0.62166 2.04431,1.89934 2.73065,2.51375 0.27178,0.24329 0.74982,0.68561 1.06236,0.98291 0.31252,0.29731 0.75686,0.71816 0.98738,0.93519 0.77506,0.72971 1.31816,1.32204 1.60217,1.74742 0.29927,0.44822 0.43246,0.98916 0.29916,1.2149 -0.13767,0.23321 -0.99139,0.76357 -1.53302,0.95244 -1.16523,0.40584 -1.41802,0.49143 -1.76631,0.59111 -0.20007,0.058 -0.61759,0.18449 -0.92762,0.28215 -1.04319,0.32857 -1.52618,0.47781 -2.45834,0.76003 -0.51026,0.15462 -1.08438,0.33049 -1.2758,0.3909 -0.33442,0.10549 -0.36708,0.0961 -0.82902,-0.22654 -0.26455,-0.18504 -0.6647,-0.50085 -0.88927,-0.70166 -0.65296,-0.58399 -3.82563,-3.46682 -4.42293,-4.01895 -0.60494,-0.55909 -0.55214,-0.51021 -1.36326,-1.26192 -0.96975,-0.89867 -4.74889,-4.42719 -6.18462,-5.7745 -0.74089,-0.69522 -1.57425,-1.47505 -1.85185,-1.73287 -0.27764,-0.25788 -0.62463,-0.58282 -0.77113,-0.72216 -0.43331,-0.41207 -2.22802,-2.09026 -2.81814,-2.63517 -0.30046,-0.27746 -0.83832,-0.78111 -1.19526,-1.1193 -0.35694,-0.33817 -0.89409,-0.84196 -1.19371,-1.11954 -1.07918,-0.99987 -2.64817,-2.45865 -2.98704,-2.77725 -0.1902,-0.17889 -0.79965,-0.74718 -1.35434,-1.26292 -0.55469,-0.5158 -1.26061,-1.17492 -1.56869,-1.46469 -0.30812,-0.28981 -0.69423,-0.6502 -0.85805,-0.80091 -0.16391,-0.15069 -0.48669,-0.44937 -0.71746,-0.66373 -0.23083,-0.21436 -0.64752,-0.60062 -0.92604,-0.85835 -0.99051,-0.91646 -1.63865,-1.56072 -1.89385,-1.88254 -0.31249,-0.39404 -0.51414,-1.21962 -0.44108,-1.80322 z m 4.17048,-11.68068 c 0.1244,-0.77482 0.66839,-2.51294 1.05477,-3.36689 0.77259,-1.7077 2.06397,-3.67618 2.73178,-4.16425 0.16891,-0.12339 0.46323,-0.24704 0.66554,-0.27957 l 0.3627,-0.0583 0.13765,0.50667 c 0.0752,0.27879 0.23492,0.96261 0.35524,1.51952 l 0.21688,1.01304 1.09441,-0.21905 c 1.24525,-0.24926 1.11137,-0.30584 1.33896,0.56643 l 0.11638,0.4466 -1.19214,0.99275 c -0.65568,0.54601 -1.18968,1.01256 -1.18671,1.03676 0.004,0.0245 0.13263,0.88976 0.28799,1.92346 l 0.28255,1.87935 0.37116,-0.0595 c 0.44816,-0.072 0.99956,-0.43136 1.64545,-1.0693 0.53362,-0.52697 1.08309,-1.33103 1.09432,-1.60131 0.004,-0.0995 0.0208,-0.57985 0.0384,-1.06678 0.0172,-0.48699 0.0438,-0.9034 0.0597,-0.92536 0.13693,-0.18938 1.3066,0.64412 2.58949,1.8454 1.10555,1.03524 1.04696,0.80784 0.47409,1.84079 l -0.49893,0.89959 0.22238,1.38394 c 0.32583,2.02767 0.56955,2.5209 1.19515,2.42035 0.15636,-0.0258 0.66555,-0.22445 1.13114,-0.44288 1.42837,-0.66992 1.77888,-0.80029 2.2749,-0.84598 0.62593,-0.0578 0.9543,0.13118 1.87151,1.07633 l 0.70227,0.72367 0.0492,1.1807 c 0.11146,2.6738 0.15068,3.05452 0.34337,3.33361 0.25367,0.36736 0.55675,0.37444 2.5237,0.0588 l 1.69229,-0.27192 0.54631,0.44096 c 0.96598,0.77973 1.34672,1.14152 1.65336,1.57114 0.42577,0.59648 0.59192,1.6501 0.49128,3.11564 -0.0394,0.57497 -0.0359,1.12971 0.009,1.23281 0.22686,0.52862 0.71127,0.68616 2.12078,0.6895 0.43668,10e-4 1.00365,0.004 1.2599,0.005 0.25624,0.002 0.66491,-0.003 0.90815,-0.0118 0.51475,-0.0177 0.56972,0.012 1.50905,0.81249 1.145,0.97602 1.20629,1.05874 1.27294,1.71781 0.0505,0.49899 0.009,0.7237 -0.35792,1.94242 -0.48612,1.61382 -0.56439,2.09878 -0.37824,2.34326 0.19508,0.25618 0.78249,0.36657 2.19804,0.41307 1.74367,0.0572 1.80277,0.0459 3.3877,-0.67167 0.12986,-0.0586 0.32091,0.0935 1.07903,0.85974 1.4412,1.45662 1.77086,2.00377 1.3685,2.2714 -0.14553,0.0967 -0.32612,0.12502 -0.73865,0.11529 -0.70654,-0.0166 -1.18255,0.16765 -1.69806,0.65623 -0.68482,0.64879 -1.41642,2.0588 -1.29417,2.49421 0.091,0.32424 0.49432,0.41163 1.74119,0.37718 0.57709,-0.016 1.24967,-0.0311 1.49466,-0.0337 0.43378,-0.005 0.45552,-0.0154 0.83378,-0.41412 1.23127,-1.29822 1.59832,-1.69954 1.61323,-1.76393 0.0366,-0.16013 0.23925,-0.0862 0.71491,0.26279 0.2751,0.20164 0.50484,0.39551 0.51055,0.43095 0.007,0.0357 -0.0648,0.31589 -0.15642,0.62315 -0.13881,0.46516 -0.14658,0.59373 -0.0469,0.76765 0.13994,0.24293 0.59131,0.37892 1.0259,0.309 0.58959,-0.0948 1.38702,0.26086 1.69079,0.75411 0.1575,0.25569 0.10282,0.4266 -0.36219,1.13243 -0.3254,0.49389 -2.12901,2.72536 -2.21614,2.74189 -0.0324,0.006 -0.27624,0.0805 -0.54173,0.1656 -0.63147,0.20244 -3.14373,0.99517 -3.86906,1.22143 l -0.56791,0.17765 -0.90728,-0.4076 c -1.78884,-0.80373 -2.18009,-1.26377 -1.65539,-1.94644 0.13781,-0.17931 0.44195,-0.4573 0.67592,-0.61776 1.26296,-0.86633 1.22374,-1.60103 -0.10062,-1.88534 -0.73886,-0.15858 -2.06356,0.074 -2.96666,0.52096 -0.36287,0.17968 -0.66925,0.31858 -0.68071,0.30904 -0.22039,-0.18513 -1.75154,-1.69149 -1.96779,-1.93583 -0.1631,-0.18414 -0.31328,-0.43985 -0.33391,-0.56815 -0.0706,-0.43921 0.39458,-0.53168 1.92165,-0.38202 0.3753,0.0368 0.73261,0.0589 0.79405,0.0489 0.17872,-0.0279 0.83256,-0.74282 1.28309,-1.40101 0.43922,-0.64162 0.84482,-1.58798 0.73502,-1.71495 -0.17198,-0.19886 -1.11681,-0.36839 -2.64839,-0.47509 -1.57781,-0.11001 -1.41287,-0.1652 -2.09716,0.70225 -0.32938,0.41728 -0.78399,0.97546 -1.01026,1.24036 l -0.41139,0.48166 -0.50661,-0.14976 c -0.90204,-0.2667 -0.8386,-0.16001 -0.83385,-1.40203 0.002,-0.5949 0.006,-1.1182 0.007,-1.16287 0.002,-0.0449 -0.40366,-0.12597 -0.90105,-0.18063 -0.4974,-0.0547 -1.06966,-0.11868 -1.27169,-0.14226 -0.25609,-0.0296 -0.46362,-0.1306 -0.68513,-0.3326 -0.17472,-0.15931 -0.58374,-0.51354 -0.90885,-0.78702 -1.01931,-0.8574 -1.56974,-1.59363 -1.67332,-2.23815 -0.0206,-0.12779 0.0287,-0.53036 0.10995,-0.89483 0.10516,-0.47317 0.1244,-0.80196 0.0689,-1.14975 -0.0912,-0.56782 -0.0169,-0.53637 -1.2254,-0.51776 -0.4642,0.007 -1.16084,0.0167 -1.5481,0.0212 l -0.70416,0.008 -1.09058,-0.96608 -1.09062,-0.96614 -0.0904,-0.96614 c -0.0497,-0.5314 -0.12189,-1.31041 -0.16035,-1.73115 l -0.0699,-0.76501 -0.38024,0.003 c -0.20909,0.001 -0.93488,0.0457 -1.61273,0.0979 -0.67789,0.0523 -1.24756,0.0814 -1.26599,0.0649 -0.0183,-0.0171 -0.3546,-0.35918 -0.74706,-0.76141 -1.1473,-1.17601 -1.61404,-1.91743 -1.95699,-3.10892 -0.12115,-0.42084 -0.2284,-0.76788 -0.23844,-0.77106 -0.0103,-0.003 -0.36425,0.008 -0.78718,0.0243 -0.42298,0.0168 -0.89526,-0.0114 -1.0496,-0.0622 -0.33288,-0.10939 -0.64037,-0.51541 -0.61471,-0.81133 0.0314,-0.36248 0.45295,-1.00233 1.04376,-1.58437 0.45748,-0.45077 0.60133,-0.65797 0.72564,-1.04531 0.15449,-0.48132 0.15408,-0.48909 -0.12286,-2.21216 l -0.27795,-1.7291 -0.54828,0.14186 c -1.0774,0.27794 -2.01442,1.23168 -2.33524,2.37698 -0.12338,0.44052 -0.1207,0.57603 0.0289,1.41249 l 0.16542,0.92527 -0.31139,0.0501 c -0.27072,0.0437 -0.38152,-0.002 -0.84818,-0.35019 -0.48371,-0.36064 -1.72032,-1.51446 -1.8413,-1.71802 -0.0265,-0.0447 0.0124,-0.31235 0.0859,-0.59473 0.21814,-0.82999 0.21341,-1.56414 -0.0194,-3.01288 l -0.2113,-1.3142 -0.22829,0.0366 c -0.32634,0.0525 -0.70752,0.44637 -1.09111,1.12772 -0.40558,0.72041 -0.72183,0.98752 -1.15574,0.97622 -0.37363,-0.01 -0.64229,-0.24513 -1.19173,-1.04442 -0.4962,-0.72177 -0.61986,-1.14928 -0.51752,-1.78908 z m 1.60289,0.17506 c 0.11079,0.0654 0.18757,0.0382 0.39309,-0.13996 0.41981,-0.36297 1.38432,-1.84575 1.58889,-2.44268 0.29898,-0.87217 0.21282,-2.11813 -0.17265,-2.49955 -0.12525,-0.12383 -0.14837,-0.12107 -0.39507,0.0493 -0.63601,0.43916 -1.30954,2.02793 -1.62886,3.84229 -0.0704,0.404 0.0535,1.09527 0.21456,1.19032 z m 11.73804,11.14478 c 0.16077,0.4162 0.33657,0.89027 0.39054,1.0535 0.0962,0.29177 0.10556,0.29656 0.563,0.28041 0.57099,-0.0199 1.56953,-0.26097 1.86392,-0.44911 0.43093,-0.27643 0.78354,-0.65153 1.03943,-1.10576 l 0.26042,-0.46222 -0.20312,-1.26352 c -0.3387,-2.1075 -0.52959,-2.39167 -1.43609,-2.13887 -0.51448,0.14358 -1.53866,0.64304 -1.96692,0.95937 -0.37497,0.27694 -0.76574,0.86768 -0.84522,1.27784 -0.0936,0.48402 -0.006,0.96721 0.33426,1.84898 z m 6.39916,6.54939 c 0.0737,0.0531 1.61626,-0.0568 2.28081,-0.16263 0.81169,-0.13048 1.13845,-0.27479 1.59365,-0.70837 0.25198,-0.24034 0.40228,-0.48697 0.52339,-0.85916 0.16549,-0.50848 0.16506,-0.55244 -0.0197,-1.68133 -0.26572,-1.62581 -0.158,-1.54496 -1.72714,-1.2928 -1.07214,0.17235 -1.33784,0.2418 -1.68839,0.44123 -0.78391,0.44609 -1.25689,1.2594 -1.30471,2.24336 -0.0173,0.35406 0.25416,1.95606 0.34223,2.01966 z m 5.83603,6.01104 c 0.0749,0.0845 2.13232,0.20041 3.06533,0.17286 0.69595,-0.0205 1.15865,-0.20424 1.39494,-0.55385 0.23798,-0.35204 0.78183,-2.08009 0.83552,-2.65498 0.0751,-0.80401 -0.41414,-1.09882 -1.76527,-1.06388 -0.36193,0.01 -0.99264,0.0142 -1.4015,0.0109 -0.67865,-0.006 -0.76657,0.01 -1.00948,0.17663 -0.5186,0.35661 -1.14612,1.60879 -1.28474,2.5636 -0.0559,0.39176 0.0435,1.21147 0.16516,1.34856 z m 13.83884,10.96521 c 0.39771,0.21338 1.3323,0.32907 1.8945,0.23462 0.84253,-0.1414 1.85397,-0.64933 2.36567,-1.1879 0.26756,-0.2816 0.44961,-0.73996 0.3572,-0.89924 -0.14733,-0.25388 -0.82578,-0.38352 -1.90073,-0.36327 -0.37142,0.007 -0.46305,0.0583 -1.72739,0.96506 -0.73433,0.52673 -1.3309,0.98412 -1.32569,1.01645 0.006,0.0323 0.15658,0.13769 0.33646,0.23413 z m -34.60048,-47.93426 c 0.30361,-0.31891 0.67086,-0.71314 0.81606,-0.87612 0.77014,-0.86421 3.09646,-3.34736 3.43356,-3.66504 0.16095,-0.15168 0.3836,-0.29037 0.49485,-0.30829 0.73743,-0.11861 1.83163,0.70599 5.08958,3.83534 0.31127,0.29897 0.58873,0.55899 0.61656,0.57776 0.0278,0.0189 0.18518,0.16154 0.34952,0.31733 0.16442,0.15579 0.64832,0.61099 1.07545,1.01164 0.42713,0.40066 1.08694,1.02123 1.46627,1.37907 0.37933,0.35783 1.06091,0.9967 1.51459,1.4197 0.45369,0.42301 1.92325,1.7994 3.2657,3.05857 1.34244,1.25926 2.48579,2.3259 2.54079,2.37038 0.10831,0.0875 1.25504,1.15839 2.13742,1.99595 0.302,0.28667 0.77156,0.72096 1.04347,0.9651 0.2719,0.2441 0.83182,0.7688 1.24424,1.16599 0.41246,0.39717 0.79407,0.75803 0.84805,0.80193 0.15259,0.12408 2.78207,2.57702 3.43454,3.20396 0.13759,0.13225 0.38368,0.36058 0.5469,0.50748 0.1632,0.1469 0.70064,0.64814 1.19428,1.11386 0.49365,0.46574 1.66987,1.56579 2.6138,2.44462 3.04808,2.83782 3.48449,3.24444 4.34815,4.05147 0.46741,0.43674 1.25149,1.16736 1.74239,1.62359 1.683,1.56409 2.14347,1.99418 2.39347,2.2355 0.1377,0.1329 0.5877,0.55293 0.99999,0.93335 0.41231,0.38044 1.04929,0.97452 1.41557,1.32026 0.36625,0.34573 0.84965,0.80102 1.07425,1.01182 0.22459,0.2108 0.58084,0.54592 0.79168,0.74472 0.21081,0.19875 0.5775,0.54305 0.81487,0.76503 0.5227,0.48889 3.0715,2.93248 3.28397,3.14849 0.83642,0.85012 1.65172,1.80356 1.73098,2.02421 0.13714,0.38173 0.067,0.55833 -0.61898,1.55921 -1.5469,2.25697 -3.49542,3.79166 -5.14371,4.05134 -0.92714,0.14601 -0.93922,0.13781 -3.92778,-2.67456 -0.21932,-0.20638 -0.84731,-0.78585 -1.39559,-1.28769 -0.54826,-0.50186 -1.37457,-1.27058 -1.83625,-1.70825 -0.46167,-0.43766 -0.88473,-0.83121 -0.94015,-0.8746 -0.0552,-0.0433 -0.5724,-0.52589 -1.14882,-1.07227 -0.57641,-0.54645 -1.39985,-1.32315 -1.82986,-1.72605 -0.43002,-0.40292 -0.96812,-0.90837 -1.1958,-1.12327 -0.22768,-0.21486 -0.54813,-0.51481 -0.71211,-0.66654 -0.27456,-0.25403 -1.43238,-1.34083 -2.45225,-2.30181 -0.23204,-0.21865 -1.03246,-0.96567 -1.77875,-1.66006 -0.74627,-0.6944 -1.66599,-1.55551 -2.04386,-1.91358 -0.37786,-0.35806 -0.71168,-0.6661 -0.7418,-0.68454 -0.03,-0.019 -0.30725,-0.27842 -0.61584,-0.57786 -0.30857,-0.29941 -1.003,-0.95503 -1.54316,-1.45695 -0.54016,-0.50189 -1.22906,-1.14615 -1.53088,-1.43163 -0.30182,-0.28551 -0.9287,-0.86956 -1.39307,-1.29785 -0.46437,-0.42835 -1.42682,-1.32368 -2.1388,-1.98967 -0.71197,-0.66597 -1.33869,-1.24529 -1.39275,-1.2874 -0.0541,-0.0421 -0.35283,-0.32113 -0.66389,-0.62013 -0.31104,-0.299 -1.26283,-1.19303 -2.11505,-1.9867 -0.85225,-0.79371 -1.89499,-1.76832 -2.31721,-2.16578 -0.42224,-0.39748 -0.96021,-0.90113 -1.19551,-1.11926 -1.12747,-1.04524 -2.09386,-1.94816 -2.32081,-2.16849 -0.13783,-0.13385 -0.36282,-0.34155 -0.49993,-0.46165 -0.13709,-0.1201 -0.38292,-0.34666 -0.54625,-0.50344 -0.16338,-0.15671 -0.47629,-0.45348 -0.69549,-0.65933 -0.21921,-0.20583 -0.68708,-0.64716 -1.03972,-0.9807 -0.35264,-0.33357 -0.66553,-0.62158 -0.69532,-0.64008 -0.0297,-0.019 -0.25678,-0.22871 -0.50439,-0.46726 -0.24762,-0.23851 -1.07755,-1.01884 -1.84429,-1.7341 -1.76308,-1.64464 -2.92144,-2.8255 -3.47852,-3.54592 -0.35058,-0.45338 -0.45021,-0.64867 -0.50648,-0.99273 l -0.0699,-0.42832 z m 8.86968,-5.98695 c 0.55553,-0.35054 0.6826,-0.41357 1.77599,-0.88086 1.91972,-0.82036 2.62568,-1.20626 4.04422,-2.21064 0.55319,-0.39169 0.85599,-0.55325 1.11427,-0.59458 0.37096,-0.0593 0.76034,0.0277 0.97891,0.21899 0.13149,0.11502 0.8025,0.22761 1.31751,0.22161 0.15755,-0.002 0.94428,-0.0859 1.74829,-0.18648 l 1.46181,-0.18288 0.45731,-0.51037 c 0.65041,-0.72591 1.1113,-0.97721 2.18111,-1.18928 l 0.87441,-0.17327 -0.0256,0.32871 c -0.0135,0.18077 -0.0345,0.50141 -0.0454,0.7126 -0.0108,0.21113 -0.0293,0.46579 -0.0415,0.56586 -0.0174,0.1481 0.0232,0.18425 0.21961,0.19426 0.1327,0.007 0.51624,0.0271 0.85225,0.0435 0.33597,0.0172 0.75654,0.0275 0.93453,0.0238 0.178,-0.004 0.58941,-0.0121 0.91419,-0.018 1.56618,-0.0283 1.44569,0.004 1.80961,-0.48856 0.17894,-0.24239 0.42359,-0.49669 0.5436,-0.56514 0.56424,-0.32189 1.43559,-0.22447 1.89488,0.21196 0.19618,0.18645 0.282,0.35962 0.36117,0.72908 l 0.10387,0.48452 0.52607,0.11459 c 0.28929,0.0634 0.99511,0.21301 1.56841,0.33321 l 1.04235,0.21858 1.08631,-0.36769 c 0.65149,-0.22048 1.10205,-0.33758 1.12561,-0.29245 0.0216,0.0415 0.34224,0.42388 0.71253,0.85001 0.37026,0.42611 0.67966,0.81485 0.68754,0.8639 0.008,0.0489 -0.15664,0.1635 -0.36572,0.25436 -0.51757,0.22509 -0.81498,0.49538 -1.04373,0.94848 -0.21932,0.43441 -0.19747,0.48885 0.3572,0.88889 0.9489,0.68432 2.49089,0.68728 2.9837,0.006 0.14237,-0.19689 0.19432,-0.38548 0.18131,-0.65872 -0.0339,-0.71903 0.23417,-0.84449 1.16133,-0.54395 l 0.58016,0.18814 0.23462,1.19663 c 0.12901,0.65811 0.25582,1.21009 0.28173,1.22657 0.1856,0.11804 1.33308,0.21338 1.71516,0.14342 0.56812,-0.10504 0.88756,0.0266 1.68336,0.69411 0.31851,0.26706 0.63457,0.52837 0.70239,0.58072 0.12433,0.0959 0.14943,0.37909 0.0901,1.01449 -0.0967,1.03478 0.58886,1.9359 1.37643,1.80934 0.61473,-0.0988 1.55192,0.41958 1.987,1.09916 0.19119,0.29862 0.24084,0.46895 0.27936,0.95872 0.086,1.09406 0.51312,1.79702 1.62662,2.67727 1.11032,0.87772 1.19574,1.22282 0.63723,2.57438 -0.19531,0.47249 -0.19854,0.52147 -0.0614,0.94052 0.0794,0.24315 0.27252,0.92638 0.42896,1.51829 0.15645,0.59196 0.31043,1.10633 0.34224,1.14309 0.0338,0.0389 0.20706,0.012 0.41709,-0.0646 0.19764,-0.0721 0.55389,-0.16406 0.79174,-0.20425 l 0.43237,-0.0735 0.18493,1.15057 c 0.14545,0.90501 0.1623,1.1686 0.079,1.23523 -0.0583,0.0464 -0.41123,0.45613 -0.78439,0.91011 l -0.67849,0.82545 0.28873,1.79653 0.28871,1.79651 0.27755,-0.0446 c 0.39418,-0.0633 0.63202,-0.36511 0.86382,-1.09584 l 0.20094,-0.63327 0.17947,0.24276 c 0.14986,0.20274 0.19109,0.37879 0.25009,1.06834 0.0726,0.84854 0.007,2.16074 -0.12786,2.58048 -0.0447,0.13876 -0.38966,0.51147 -0.83321,0.90052 l -0.75667,0.66374 -0.1052,1.28082 c -0.16012,1.94949 -0.16896,2.19778 -0.0885,2.50491 0.0898,0.34242 0.27549,0.36404 0.9198,0.10722 0.23277,-0.0934 0.43853,-0.15819 0.45684,-0.14496 0.0633,0.0458 -0.0329,0.96928 -0.1327,1.27809 -0.14342,0.44204 -0.42142,0.92806 -1.09677,1.91764 -1.31331,1.92439 -1.88206,3.48158 -1.72749,4.72966 0.0859,0.6941 -0.0144,1.08517 -0.44439,1.7311 -0.20694,0.31076 -0.21447,0.31438 -0.40595,0.19222 -0.42419,-0.27079 -0.93634,-0.67085 -0.94747,-0.74018 -0.007,-0.0403 0.10689,-0.38555 0.25182,-0.76734 0.46247,-1.21772 0.72742,-2.23453 0.69891,-2.68228 l -0.027,-0.42345 -0.51361,0.14473 c -0.9248,0.26082 -1.72854,0.73763 -2.17698,1.2914 -0.14571,0.17989 -0.29827,0.33253 -0.33901,0.33909 -0.0411,0.006 -0.38929,-0.23252 -0.77454,-0.53125 -2.13932,-1.6588 -2.20796,-2.17035 -0.37061,-2.76146 l 0.65718,-0.21114 0.10155,-0.74212 c 0.0556,-0.40817 0.15618,-1.09353 0.22291,-1.52304 0.067,-0.42949 0.13547,-1.09611 0.15258,-1.48128 0.0307,-0.68725 0.0268,-0.70405 -0.17297,-0.89831 -0.28975,-0.28103 -0.53448,-0.2872 -2.10889,-0.0529 l -1.39847,0.20784 -0.18288,1.0447 c -0.22123,1.26055 -0.29308,1.48475 -0.61651,1.9139 -0.50015,0.66361 -1.18492,0.46547 -1.54691,-0.44767 -0.0906,-0.22835 -0.21067,-0.75413 -0.26705,-1.16836 -0.0822,-0.60427 -0.13856,-0.79276 -0.28528,-0.95363 -0.20121,-0.22065 -0.74078,-0.38603 -1.27309,-0.3903 -0.23164,-0.002 -0.54267,-0.11494 -0.95381,-0.34682 -1.39426,-0.78626 -3.78117,-2.93921 -4.58065,-4.13165 -0.30205,-0.45054 -0.32984,-0.65832 -0.23388,-1.74862 0.0137,-0.16534 0.009,-0.57298 -0.0126,-0.90618 -0.0701,-1.08578 -0.3816,-1.30639 -1.77265,-1.2555 -0.70937,0.0258 -1.21748,0.032 -1.47774,0.0178 -0.74085,-0.0409 -1.45847,-0.52959 -3.4629,-2.35906 -1.28744,-1.17506 -1.31064,-1.22076 -1.7344,-3.41461 -0.19538,-1.01157 -0.39534,-1.8682 -0.44428,-1.90363 -0.0488,-0.0354 -0.7586,0.01 -1.57692,0.10066 -1.44871,0.16071 -1.49328,0.16032 -1.69344,-0.0154 -0.11301,-0.0992 -0.4716,-0.41465 -0.79679,-0.70081 -0.3252,-0.28618 -0.83521,-0.73291 -1.13338,-0.99277 -1.94336,-1.69346 -2.61911,-2.61465 -2.81578,-3.83841 -0.11297,-0.70289 -0.69408,-1.0219 -1.59704,-0.87675 -0.47862,0.077 -1.09439,-0.33252 -1.81307,-1.20561 -0.15114,-0.18368 0.56118,-0.64049 1.30977,-0.83996 1.18736,-0.31633 1.83877,-0.88044 2.21974,-1.92232 0.26373,-0.72133 0.24174,-1.36255 -0.066,-1.95426 l -0.20888,-0.40117 -1.45732,0.23417 c -2.24091,0.36017 -3.23071,0.79592 -3.44027,1.51461 -0.049,0.16773 -0.0833,0.33925 -0.076,0.38131 0.006,0.042 -0.0608,0.17073 -0.14984,0.28625 -0.263,0.34077 -0.55082,0.32643 -1.11101,-0.055 -0.45095,-0.30734 -1.34558,-1.16798 -1.51176,-1.45437 -0.0395,-0.0679 0.10105,-0.49305 0.33909,-1.02539 0.50236,-1.12398 0.60419,-1.68347 0.38791,-2.13084 -0.14062,-0.29064 -0.16631,-0.30606 -0.34264,-0.20446 -0.29843,0.17198 -1.77699,0.70851 -2.06556,0.74951 -0.39463,0.0559 -0.84892,-0.0511 -0.89878,-0.2123 -0.0296,-0.0973 0.0466,-0.19958 0.23729,-0.32044 z m 8.24813,0.69713 2.18294,-0.36781 0.28271,-0.42989 c 0.3944,-0.5997 0.58722,-1.26408 0.50869,-1.75268 l -0.0637,-0.39617 -2.20559,0.35847 -2.2056,0.35848 -0.31112,0.58893 c -0.44254,0.8378 -0.54357,1.20607 -0.45025,1.64086 l 0.0789,0.36804 z m 5.44573,10.92037 c 0.11107,0.38175 0.14835,0.42575 0.39317,0.46493 0.84325,0.1345 1.90478,0.13191 3.06749,-0.008 l 1.25804,-0.15187 0.11197,-0.34714 c 0.25031,-0.77674 0.28167,-1.64212 0.13481,-3.65844 -0.0171,-0.23167 -0.76544,-0.54046 -1.40057,-0.57784 -0.67852,-0.0397 -3.03865,0.33382 -3.50796,0.5556 -0.39413,0.18606 -0.48171,0.32263 -0.54405,0.84791 -0.0481,0.40596 0.2072,1.91307 0.48718,2.87541 z m -0.16803,-6.58569 c 0.0933,0.13202 0.27054,0.23124 0.47715,0.26692 0.39899,0.0692 2.28256,-0.0816 3.53602,-0.28263 l 0.91626,-0.14723 0.1303,-0.84597 c 0.0913,-0.58965 0.10758,-1.09068 0.0547,-1.65387 -0.088,-0.93512 0.0936,-0.82088 -1.3798,-0.86889 -0.4951,-0.0157 -1.43303,0.036 -2.10491,0.11685 -1.16203,0.13993 -1.22092,0.15508 -1.43114,0.36982 -0.58219,0.59468 -0.69626,2.34021 -0.19892,3.04462 z m 0.55207,-5.38152 c 0.0711,0.15501 0.16153,0.19649 0.4247,0.19462 0.99638,-0.007 3.11454,0.0101 3.73256,0.0303 0.13293,0.005 0.29619,-0.16261 0.63581,-0.65005 0.39412,-0.56575 0.45026,-0.69748 0.40838,-0.95806 -0.0268,-0.16616 -0.0984,-0.36761 -0.1593,-0.44769 -0.30898,-0.40581 -1.74495,-0.55618 -3.96105,-0.4148 l -0.54966,0.0352 -0.26881,0.55313 c -0.39202,0.80676 -0.45901,1.22945 -0.26265,1.65749 z m 7.82337,20.06331 c 0.0113,-0.002 0.57658,0.0206 1.25608,0.0505 1.39398,0.0605 2.66275,-0.0869 3.10536,-0.36142 0.55312,-0.34309 0.74952,-0.89298 0.75686,-2.11921 0.0128,-2.12522 -0.0284,-2.53204 -0.27075,-2.67851 -0.64317,-0.38882 -1.35404,-0.46728 -3.20825,-0.35413 -1.21378,0.0741 -1.21473,0.0743 -1.37921,0.28607 -0.33622,0.43293 -0.45541,1.10904 -0.53254,3.02074 -0.0135,0.33542 0.21767,2.16476 0.27247,2.15597 z m -0.121,-8.12298 c 0.32778,0.1868 3.47058,0.0402 4.51369,-0.2106 l 0.3666,-0.088 -0.0135,-0.9708 c -0.007,-0.53391 -0.0185,-1.26756 -0.0246,-1.63029 -0.006,-0.36274 -6.1e-4,-0.70941 0.0122,-0.77046 0.0124,-0.061 -0.16263,-0.23421 -0.3899,-0.38484 -0.55688,-0.36913 -1.40242,-0.49591 -3.25191,-0.48763 l -0.95427,0.004 -0.23662,0.32958 c -0.29941,0.41703 -0.36562,1.00132 -0.27791,2.45136 0.0887,1.46527 0.11998,1.68001 0.25606,1.75758 z m 0.11116,-6.94144 c 0.31535,0.22428 0.46032,0.26019 1.21151,0.29989 0.46936,0.0248 1.22776,0.0253 1.68535,9.8e-4 0.45763,-0.0242 0.92154,-0.0363 1.03091,-0.0269 0.17873,0.0153 0.22164,-0.0586 0.42476,-0.72593 0.19955,-0.65612 0.21366,-0.79721 0.1201,-1.20472 -0.17769,-0.7747 -0.67966,-1.16897 -1.76819,-1.38888 -0.41291,-0.083 -0.79054,-0.0768 -1.77167,0.0312 -0.68585,0.0756 -1.26032,0.15209 -1.27657,0.1701 -0.0998,0.11076 -0.17033,1.54697 -0.0993,2.0219 0.0823,0.54969 0.096,0.5754 0.44312,0.82217 z m 0.2563,-4.96316 c 0.17744,0.1554 0.49401,0.22076 1.73206,0.35817 2.10366,0.23324 1.87231,0.24156 2.1144,-0.076 0.30479,-0.39985 0.38317,-0.70308 0.30601,-1.18361 l -0.0678,-0.42183 -0.6855,-0.18541 c -0.377,-0.10196 -0.7653,-0.20836 -0.86292,-0.23637 -0.56768,-0.1636 -1.25842,-0.21622 -1.76788,-0.13406 -0.49814,0.0802 -0.58801,0.12117 -0.77886,0.35779 -0.38741,0.48007 -0.3826,1.17723 0.0105,1.52137 z m 7.89709,28.02541 c 0.34619,0.49238 0.75192,0.54761 2.26535,0.30844 0.63544,-0.0996 1.39965,-0.24597 1.69855,-0.3234 l 0.54341,-0.14071 0.098,-0.44816 c 0.0841,-0.38445 0.13347,-0.86457 0.18835,-1.85868 0.018,-0.33128 0.0179,-1.6918 -9.7e-4,-2.13849 -0.0177,-0.41996 -0.16118,-0.61716 -0.54543,-0.74961 -0.2731,-0.0943 -2.05501,0.012 -3.17503,0.1892 l -1.04877,0.16604 -0.0315,0.32236 c -0.0181,0.17718 -0.0449,0.5148 -0.061,0.75009 -0.0162,0.23529 -0.0608,0.68854 -0.0991,1.00722 -0.0984,0.81737 -0.15622,2.03328 -0.11074,2.32612 0.0207,0.13615 0.14664,0.40159 0.27899,0.5897 z m 0.6443,-8.37152 c 0.67867,0.11265 2.1247,0.1605 3.20705,0.10722 0.33244,-0.0163 0.34056,-0.024 0.46695,-0.44268 0.18419,-0.60986 0.14918,-1.74079 -0.10224,-3.31645 l -0.21861,-1.36944 -0.5373,-0.0528 c -1.29119,-0.12714 -1.6824,-0.12058 -2.72704,0.0461 l -1.07833,0.17077 0.006,0.65467 c 0.0139,1.41056 0.16856,3.72179 0.26516,3.96383 0.0315,0.0789 0.3051,0.16956 0.71766,0.23758 z m -0.94697,-7.88062 c 0.62343,0.19056 1.49437,0.20994 2.84794,0.0633 0.74549,-0.0808 1.06414,-0.1438 1.0944,-0.21647 0.0237,-0.0563 -0.0312,-0.69186 -0.12147,-1.41216 -0.13358,-1.06612 -0.20733,-1.41191 -0.39641,-1.85956 l -0.23228,-0.54992 -1.50859,-0.0729 c -1.79928,-0.086 -1.98819,-0.0653 -2.15873,0.24167 -0.20056,0.36095 -0.25581,1.204 -0.15071,2.29953 0.0534,0.55717 0.10392,1.08966 0.11214,1.18333 0.0114,0.12897 0.13639,0.20746 0.51376,0.32279 z m -0.53536,-6.38771 c 0.33742,0.13241 0.93786,0.25163 1.33624,0.26558 0.50098,0.0169 1.60941,0.0225 1.95144,0.009 l 0.35726,-0.0145 -0.16124,-1.00245 c -0.25292,-1.57243 -0.4037,-1.69954 -2.37487,-2.0018 -0.66414,-0.10235 -1.24029,-0.17997 -1.28016,-0.17354 -0.0925,0.0151 -0.25288,0.49484 -0.30933,0.92567 -0.0235,0.18328 0.002,0.67816 0.0587,1.10003 l 0.10238,0.76704 z m 8.70387,22.52464 c 0.19038,0.0276 0.71681,0.0728 1.16957,0.10118 l 0.82321,0.0515 0.6245,-0.57782 0.62452,-0.57772 -0.0303,-0.51904 c -0.0166,-0.28545 -0.045,-0.85936 -0.0627,-1.27531 -0.0893,-2.09213 -0.0865,-2.07406 -0.36092,-2.34216 -0.42248,-0.41269 -0.86188,-0.47131 -2.2601,-0.30132 l -1.22702,0.1491 0.002,0.62549 c 8.8e-4,0.34403 -0.007,1.00765 -0.0181,1.47474 -0.0142,0.59418 0.0384,1.19356 0.17462,1.99555 l 0.19466,1.14627 z m -2.98761,-22.23077 c 0.089,0.14359 0.23977,0.31165 0.335,0.3735 0.51349,0.33358 1.91428,0.41013 2.19225,0.1199 0.0826,-0.0863 0.12709,-0.28793 0.11598,-0.5255 -0.048,-1.0167 -1.5199,-2.24365 -2.43363,-2.02848 -0.30942,0.073 -0.36308,0.11946 -0.4491,0.39453 -0.12086,0.38546 0.01,1.29612 0.23953,1.66616 z m 0.92078,5.63836 c 0.11555,0.25878 0.22696,0.51965 0.24757,0.57971 0.0527,0.15393 0.20298,0.19516 0.96346,0.26491 0.5116,0.047 0.73263,0.032 0.94303,-0.0643 0.90394,-0.41325 1.33644,-2.0109 0.79696,-2.94409 -0.38345,-0.66327 -1.36151,-1.11334 -2.15794,-0.99303 -0.66897,0.10095 -0.96714,0.41084 -1.13349,1.17768 -0.0831,0.38343 0.0978,1.43609 0.34041,1.97919 z m 1.61642,8.1307 c 0.43841,0.14654 0.54995,0.14594 1.69041,-0.009 0.96683,-0.1311 1.2257,-0.18995 1.24365,-0.28238 0.0125,-0.0643 -0.0848,-1.01363 -0.2161,-2.10933 l -0.23869,-1.99214 -0.20498,-0.11792 c -0.7271,-0.4185 -2.15621,-0.46011 -2.97014,-0.0869 -0.22599,0.10376 -0.29794,0.18931 -0.30812,0.36626 -0.008,0.12696 -0.0198,0.27014 -0.0274,0.31795 -0.008,0.0479 0.11539,0.91251 0.27394,1.92162 l 0.28816,1.83473 z m 4.9225,15.49349 c 0.0257,0.15973 0.0592,0.15923 0.78039,-0.0136 1.58313,-0.37967 1.76046,-0.68494 2.07012,-3.56502 0.10455,-0.97109 0.0443,-1.40105 -0.24217,-1.73239 -0.11893,-0.13767 -0.24107,-0.24576 -0.2713,-0.24033 -0.0305,0.005 -0.47728,0.22478 -0.9935,0.48732 l -0.93851,0.47759 -0.16561,0.98914 c -0.20711,1.2415 -0.39665,3.18944 -0.32235,3.32674 0.0308,0.0572 0.0683,0.17883 0.0829,0.27064 z m -1.56016,-23.45203 c 0.13542,0.21331 0.33214,0.42956 0.43718,0.48052 0.24978,0.1212 1.1773,-0.0216 1.2809,-0.19713 0.041,-0.0695 0.0524,-0.40452 0.0251,-0.74434 -0.0593,-0.74087 -0.36429,-1.41837 -0.88679,-1.97017 -0.56347,-0.59502 -1.27774,-0.73402 -1.34806,-0.26231 -0.11925,0.80041 0.11905,2.10651 0.49152,2.6933 z m 2.74339,15.5057 c 0.83355,0.007 1.73757,-0.59796 1.76138,-1.17931 0.007,-0.16021 -0.11681,-1.17202 -0.27435,-2.2484 l -0.28639,-1.95706 -0.24473,-0.0101 c -0.13449,-0.006 -0.44136,0.0223 -0.68168,0.0611 -0.53262,0.0856 -0.84259,0.39506 -1.00157,0.99955 -0.14846,0.56468 -0.12352,1.04765 0.14464,2.78995 l 0.23708,1.54082 z m -1.4143,-8.83409 c 0.15701,0.41255 0.54288,0.9538 0.77971,1.09365 0.10249,0.0606 0.28395,-0.0249 0.84003,-0.3955 l 0.70935,-0.47275 -0.25108,-1.27103 c -0.19512,-0.9878 -0.30652,-1.37345 -0.49997,-1.73062 -0.29633,-0.54715 -0.65871,-0.911 -1.02851,-1.03269 -0.54215,-0.17839 -1.11072,0.28419 -1.12079,0.91185 -0.007,0.4675 0.36438,2.35341 0.57126,2.89715 z"
       id="path4" /><path
       style="opacity:1;fill:#ffffff;fill-opacity:0;stroke:#00ccff;stroke-width:6.29291;stroke-opacity:1"
       d="m 224.76912,347.12383 c -4.4611,6.97328 -11.86199,11.99733 -19.98946,13.5697 -8.12746,1.57238 -16.86815,-0.32885 -23.60817,-5.13511 -5.36474,-3.82556 -9.39378,-9.33958 -12.05197,-15.36862 -2.6582,-6.02904 -4.00191,-12.57018 -4.64246,-19.128 -1.2811,-13.11565 0.18301,-26.40055 -1.3441,-39.48983 -1.87996,-16.11362 -8.33345,-31.57558 -17.87759,-44.69397 -3.67355,-5.04929 -7.9736,-9.90308 -13.62293,-12.56302 -2.82467,-1.32997 -5.95576,-2.07139 -9.07351,-1.9065 -3.11775,0.16489 -6.21567,1.26791 -8.58933,3.29603 -1.95753,1.67257 -3.37788,3.92641 -4.23243,6.35523 -0.85454,2.42882 -1.15944,5.0295 -1.09283,7.6034 0.1332,5.1478 1.7146,10.13016 3.09056,15.09245 6.48316,23.38107 8.62206,47.72381 13.40819,71.51034 3.79108,18.84127 9.40185,37.67492 20.11228,53.63275 7.39367,11.01608 17.19578,20.49862 28.7948,26.93937 11.59902,6.44076 25.01278,9.76362 38.24615,8.8158 16.53326,-1.18417 32.13302,-8.93849 44.7739,-19.66038 12.64089,-10.7219 22.5603,-24.29943 31.20584,-38.44177 3.18514,-5.21024 6.22454,-10.53004 9.92806,-15.38551 3.70353,-4.85548 8.13353,-9.27469 13.51854,-12.15452 5.38501,-2.87982 11.81117,-4.11107 17.70916,-2.52821 2.949,0.79144 5.72367,2.27818 7.9352,4.38343 2.21153,2.10525 3.84531,4.83438 4.54179,7.80723 0.63542,2.71222 0.48704,5.58029 -0.24693,8.26751 -0.73396,2.68722 -2.04046,5.19883 -3.66955,7.45846 -3.25819,4.51926 -7.73441,7.99144 -12.18206,11.34673 -4.44765,3.35528 -8.98841,6.71413 -12.44539,11.08321 -1.72849,2.18453 -3.17073,4.61449 -4.08319,7.24647 -0.91245,2.63198 -1.28396,5.47224 -0.89335,8.23037 0.4277,3.02008 1.76015,5.87431 3.60594,8.30265 1.84579,2.42835 4.19282,4.44589 6.73762,6.12749 5.08961,3.36321 10.92017,5.39031 16.47282,7.91684 5.84271,2.65851 11.41189,5.88889 17.26014,8.53518 5.84825,2.64629 12.07772,4.72153 18.49503,4.87301 8.93121,0.21082 17.47904,-3.28205 26.2355,-5.05274 4.37822,-0.88534 8.89725,-1.34132 13.31471,-0.67895 4.41747,0.66236 8.74798,2.51555 11.84784,5.73169 2.24152,2.3256 3.77504,5.30315 4.48593,8.45394 0.71088,3.15079 0.61031,6.46684 -0.17129,9.60084 -1.5632,6.26799 -5.79914,11.65949 -11.01873,15.46569 -5.14853,3.75438 -11.27854,6.09726 -17.58789,6.98883 -6.30935,0.89157 -12.79051,0.3519 -18.93881,-1.32177 -12.2966,-3.34735 -23.04502,-11.12371 -31.66912,-20.50647 -5.72134,-6.22464 -10.62904,-13.19879 -16.75803,-19.02248 -3.06449,-2.91185 -6.43831,-5.53078 -10.18996,-7.47886 -3.75166,-1.94809 -7.89675,-3.21257 -12.1217,-3.35321 -3.57402,-0.11897 -7.18074,0.57613 -10.42524,2.0798 -3.2445,1.50366 -6.11833,3.81948 -8.22047,6.71237 -2.10215,2.89288 -3.42104,6.36047 -3.7026,9.92537 -0.28156,3.5649 0.48432,7.21595 2.23603,10.33353 2.47981,4.41341 6.77811,7.5669 11.38743,9.66017 4.60932,2.09327 9.57868,3.24185 14.47175,4.54011 4.89307,1.29827 9.81119,2.78775 14.10551,5.46851 4.29431,2.68075 7.95422,6.70996 9.19867,11.61699 1.09421,4.31461 0.2098,9.017 -2.03908,12.85831 -2.24888,3.84131 -5.78586,6.84423 -9.77301,8.82306 -7.97431,3.95765 -17.32685,3.85613 -26.17778,2.9003 -23.32898,-2.51934 -46.34837,-10.61501 -64.74254,-25.18357 -13.2243,-10.47392 -23.71784,-23.9362 -35.75517,-35.75517 -6.13055,-6.01934 -12.71998,-11.65446 -20.17137,-15.93149 -7.45138,-4.27702 -15.82703,-7.16398 -24.41526,-7.40581 -8.58822,-0.24183 -17.38976,2.30988 -23.94699,7.86136 -3.27861,2.77574 -5.96428,6.26902 -7.69148,10.20231 -1.72719,3.9333 -2.48261,8.30534 -2.05304,12.57962 0.63072,6.27572 3.90597,12.2668 8.92652,16.08473 5.02054,3.81793 11.72746,5.37194 17.88985,4.02755 6.37643,-1.39109 11.70776,-5.5745 17.26938,-8.98951 2.78082,-1.7075 5.69314,-3.25442 8.82744,-4.1625 3.13431,-0.90809 6.5202,-1.15088 9.65835,-0.25617 2.38015,0.67859 4.56417,2.0016 6.31876,3.74718 1.75458,1.74558 3.08188,3.9067 3.9132,6.23791 1.66263,4.66241 1.30075,9.91346 -0.48605,14.52971 -1.7868,4.61625 -4.92364,8.62809 -8.61788,11.92277 -3.69425,3.29468 -7.94274,5.91044 -12.30152,8.25639 -13.89426,7.47807 -29.57595,12.4237 -45.31555,11.3115 -7.8698,-0.5561 -15.66736,-2.64332 -22.5892,-6.42897 -6.921842,-3.78565 -12.944817,-9.29683 -17.013773,-16.05602 -4.20097,-6.97848 -6.238946,-15.10472 -6.825432,-23.22897 -0.586486,-8.12425 0.224631,-16.28678 1.397457,-24.34729 2.345651,-16.12103 6.144967,-32.49462 3.193276,-48.51576 -2.285802,-12.40684 -8.470648,-23.68011 -13.771282,-35.12816 -5.300635,-11.44805 -9.867313,-23.83282 -8.575699,-36.38218 0.766945,-7.45166 3.572511,-14.54392 6.840647,-21.28445 3.268137,-6.74053 7.029501,-13.24915 9.903026,-20.16712 2.873526,-6.91797 4.855071,-14.37266 4.325615,-21.84495 -0.264728,-3.73615 -1.165053,-7.4436 -2.812567,-10.80731 -1.647515,-3.36371 -4.054495,-6.37645 -7.08323,-8.58 -3.231079,-2.35076 -7.127905,-3.74328 -11.106197,-4.11631 -3.978293,-0.37303 -8.030507,0.25956 -11.760506,1.69242 -7.459997,2.86571 -13.462182,8.85444 -17.357863,15.83208 -3.875656,6.94178 -5.810548,14.85149 -6.409872,22.77928 -0.599324,7.92778 0.09693,15.90189 1.226953,23.77158 2.260047,15.73938 6.267516,31.44268 5.182919,47.30646 -0.908527,13.28851 -5.352579,26.03454 -9.016447,38.84024 -3.663867,12.8057 -6.593462,26.23789 -4.391742,39.37419 1.606211,9.58327 5.864851,18.49798 10.338104,27.12404 4.473254,8.62606 9.243537,17.19358 12.008877,26.50872 5.898597,19.86961 1.751007,42.45137 -10.823313,58.92806 -12.574321,16.4767 -33.2610592,26.43647 -53.982933,25.99046"
       id="path89"
       transform="matrix(0.87372662,0,0,0.87372662,21.141723,48.553183)" /></g></svg>
